<svg xmlns="http://www.w3.org/2000/svg" width="39.012" height="35.237" viewBox="0 0 39.012 35.237"><defs><style>.a{fill:#61e9c2;}</style></defs><g transform="translate(-213.723 -65.382)"><g transform="translate(212.432 62.865)"><path d="M37.251,27.686H11.937L5.477,5.034H1.292V2.517H7.441L13.9,25.169H35.093l2.115-11.326H16.794V11.326H40.3Z"/><path d="M15.5,37.753a3.777,3.777,0,1,1,3.876-3.775A3.831,3.831,0,0,1,15.5,37.753Zm0-5.034a1.259,1.259,0,1,0,1.292,1.258A1.277,1.277,0,0,0,15.5,32.72Z"/><path d="M32.3,37.753a3.777,3.777,0,1,1,3.876-3.775A3.831,3.831,0,0,1,32.3,37.753Zm0-5.034a1.259,1.259,0,1,0,1.292,1.258A1.276,1.276,0,0,0,32.3,32.72Z"/><path d="M19.378,16.36h2.584v6.292H19.378Z"/><path d="M27.129,16.36h2.584v6.292H27.129Z"/></g><path class="a" d="M240.853,96.843a3.877,3.877,0,1,1,3.875,3.775A3.831,3.831,0,0,1,240.853,96.843Zm2.584,0a1.292,1.292,0,1,0,1.292-1.258A1.276,1.276,0,0,0,243.437,96.843Zm-19.378,0a3.877,3.877,0,1,1,3.875,3.775A3.831,3.831,0,0,1,224.059,96.843Zm2.583,0a1.292,1.292,0,1,0,1.292-1.258A1.278,1.278,0,0,0,226.642,96.843Zm-2.273-6.292L217.909,67.9h-4.186V65.382h6.15l6.459,22.651h21.193l2.114-11.326H229.226V74.191h23.51l-3.053,16.36Zm15.192-5.034V79.225h2.584v6.292Zm-7.751,0V79.225h2.584v6.292Z"/></g></svg>